<?xml version="1.0" encoding="UTF-8" standalone="no"?>
<!-- Generator: Adobe Illustrator 18.1.1, SVG Export Plug-In . SVG Version: 6.00 Build 0)  -->

<svg
   xmlns:dc="http://purl.org/dc/elements/1.1/"
   xmlns:cc="http://creativecommons.org/ns#"
   xmlns:rdf="http://www.w3.org/1999/02/22-rdf-syntax-ns#"
   xmlns:svg="http://www.w3.org/2000/svg"
   xmlns="http://www.w3.org/2000/svg"
   xmlns:sodipodi="http://sodipodi.sourceforge.net/DTD/sodipodi-0.dtd"
   xmlns:inkscape="http://www.inkscape.org/namespaces/inkscape"
   version="1.1"
   id="Layer_1"
   x="0px"
   y="0px"
   viewBox="7.7 3 136.36951 61.900002"
   enable-background="new 7.7 3 347 110.6"
   xml:space="preserve"
   inkscape:version="0.91 r13725"
   sodipodi:docname="galaxy_logo.svg"
   width="136.36951"
   height="61.900002"><metadata
     id="metadata4220"><rdf:RDF><cc:Work
         rdf:about=""><dc:format>image/svg+xml</dc:format><dc:type
           rdf:resource="http://purl.org/dc/dcmitype/StillImage" /><dc:title></dc:title></cc:Work></rdf:RDF></metadata><defs
     id="defs4218" /><sodipodi:namedview
     pagecolor="#ffffff"
     bordercolor="#666666"
     borderopacity="1"
     objecttolerance="10"
     gridtolerance="10"
     guidetolerance="10"
     inkscape:pageopacity="0"
     inkscape:pageshadow="2"
     inkscape:window-width="1366"
     inkscape:window-height="768"
     id="namedview4216"
     showgrid="false"
     inkscape:zoom="7.9999999"
     inkscape:cx="44.543384"
     inkscape:cy="31.019131"
     inkscape:window-x="0"
     inkscape:window-y="0"
     inkscape:window-maximized="0"
     inkscape:current-layer="g4247"
     fit-margin-top="5"
     fit-margin-left="5"
     fit-margin-right="5"
     fit-margin-bottom="5" /><linearGradient
     id="SVGID_1_"
     gradientUnits="userSpaceOnUse"
     x1="61.400002"
     y1="282.5"
     x2="175.7"
     y2="282.5"
     gradientTransform="matrix(0.431,0,0,-0.431,0,179.9715)"><stop
       offset="0.1656"
       style="stop-color:#D0BD2B"
       id="stop4180" /><stop
       offset="1"
       style="stop-color:#D0BD2B;stop-opacity:0"
       id="stop4182" /></linearGradient><g
     id="g4257"
     transform="matrix(0.79674691,0,0,0.79674691,17.310177,-2.7560833)"><path
       id="path4175"
       d="m 57.7,27.9 -47,0 c -0.6,0 -1.1,-0.5 -1.1,-1.1 l 0,-12.2 c 0,-0.6 0.5,-1.1 1.1,-1.1 l 47,0 c 0.6,0 1.1,0.5 1.1,1.1 l 0,12.1 c 0,0.6 -0.4,1.2 -1.1,1.2 z"
       inkscape:connector-curvature="0"
       style="fill:#58595b" /><path
       id="path4177"
       d="m 45.1,46.8 -34.3,0 c -0.6,0 -1.2,-0.5 -1.2,-1.2 l 0,-12 c 0,-0.6 0.5,-1.2 1.2,-1.2 l 34.3,0 c 0.6,0 1.2,0.5 1.2,1.2 l 0,12 c 0,0.7 -0.5,1.2 -1.2,1.2 z"
       inkscape:connector-curvature="0"
       style="fill:#58595b" /><path
       id="path4184"
       d="m 74.6,65.4 -47,0 c -0.6,0 -1.2,-0.5 -1.2,-1.2 l 0,-12 c 0,-0.6 0.5,-1.2 1.2,-1.2 l 46.9,0 c 0.6,0 1.2,0.5 1.2,1.2 l 0,12 c 0,0.7 -0.5,1.2 -1.1,1.2 z"
       style="fill:url(#SVGID_1_)"
       inkscape:connector-curvature="0" /></g><g
     id="g4247"
     transform="translate(-69.650019,1.5909903)"><path
       sodipodi:nodetypes="ssccss"
       style="fill:#b3b3b3;fill-opacity:1;stroke:#333333;stroke-opacity:1"
       id="path4"
       d="m 121.52356,40.184815 c 9.69414,0 17.54594,3.925904 17.54594,8.772971 l 0,4.386485 -35.09188,0 0,-4.386485 c 0,-4.847067 7.85181,-8.772971 17.54594,-8.772971 z"
       inkscape:connector-curvature="0" /><g
       transform="matrix(0.34704103,0,0,0.34704103,83.146364,22.780058)"
       id="g4219"><path
         inkscape:connector-curvature="0"
         d="m 120.11529,-9.8146848 c -1.61625,0 -3.07192,0.508259 -4.40625,1.21875 -1.62434,-0.330592 -3.30977,-0.5 -5.03125,-0.5 -3.91948,0 -7.59996,0.958352 -10.906253,2.5625 -0.383442,-0.08815 -0.746179,-0.21875 -1.15625,-0.21875 -2.663279,0 -4.776179,2.004425 -5.15625,4.5625 -4.832524,4.576249 -7.875,11.011786 -7.875,18.1874998 0,2.123429 0.346637,4.155262 0.84375,6.125 -0.812405,1.038478 -1.40625,2.267777 -1.40625,3.6875 0,3.377224 2.747776,6.124999 6.125,6.125 0.08976,0 0.161176,-0.05867 0.25,-0.0625 4.605299,5.585011 11.482603,9.25 19.281253,9.25 0.35231,0 0.68245,-0.07935 1.03125,-0.09375 1.35832,0.890289 2.88075,1.53125 4.625,1.53125 3.67557,0 6.78467,-2.324433 8.03125,-5.5625 2.24219,-1.465356 4.17548,-3.320475 5.84375,-5.40625 3.4738,-1.867466 5.9375,-5.438558 5.9375,-9.65625 0,-1.126675 -0.34284,-2.13176 -0.65625,-3.15625 0.10332,-0.924355 0.28125,-1.829462 0.28125,-2.78125 0,-6.2420798 -2.35012,-11.8881348 -6.125,-16.28124979 0,-5.26449601 -4.26676,-9.53125001 -9.53125,-9.53125001 z"
         id="path933"
         sodipodi:stroke-cmyk="(0 0 0 0.8)"
         style="font-size:12px;fill:#b3b3b3;fill-opacity:1;fill-rule:evenodd;stroke:#333333;stroke-width:3.125;stroke-linecap:round;stroke-linejoin:round;stroke-dasharray:none;stroke-opacity:1" /><circle
         r="3.6888902"
         cy="11.870957"
         cx="97.714958"
         id="path934"
         sodipodi:stroke-cmyk="(0 0 0 0.8)"
         style="font-size:12px;fill:#4c4c4c;fill-opacity:1;fill-rule:evenodd;stroke:#333333;stroke-width:1.875;stroke-dasharray:none;stroke-opacity:1" /><circle
         r="2.609215"
         cy="0.53436953"
         cx="107.97187"
         id="path935"
         sodipodi:stroke-cmyk="(0 0 0 0.8)"
         style="font-size:12px;fill:#4c4c4c;fill-opacity:1;fill-rule:evenodd;stroke:#333333;stroke-width:1.875;stroke-dasharray:none;stroke-opacity:1" /><circle
         r="2.519242"
         cy="6.2026644"
         cx="120.838"
         id="path936"
         sodipodi:stroke-cmyk="(0 0 0 0.8)"
         style="font-size:12px;fill:#4c4c4c;fill-opacity:1;fill-rule:evenodd;stroke:#333333;stroke-width:1.875;stroke-dasharray:none;stroke-opacity:1" /><circle
         r="4.3187008"
         cy="29.235731"
         cx="102.48352"
         id="path937"
         sodipodi:stroke-cmyk="(0 0 0 0.8)"
         style="font-size:12px;fill:#4c4c4c;fill-opacity:1;fill-rule:evenodd;stroke:#333333;stroke-width:1.875;stroke-dasharray:none;stroke-opacity:1" /><circle
         r="1.8894316"
         cy="15.649819"
         cx="110.49111"
         id="path938"
         sodipodi:stroke-cmyk="(0 0 0 0.8)"
         style="font-size:12px;fill:#4c4c4c;fill-opacity:1;fill-rule:evenodd;stroke:#333333;stroke-width:1.875;stroke-dasharray:none;stroke-opacity:1" /><circle
         r="4.1387548"
         cy="24.737089"
         cx="124.07703"
         id="path939"
         sodipodi:stroke-cmyk="(0 0 0 0.8)"
         style="font-size:12px;fill:#4c4c4c;fill-opacity:1;fill-rule:evenodd;stroke:#333333;stroke-width:1.875;stroke-dasharray:none;stroke-opacity:1" /></g></g></svg>